HIERARCHY
ROOT newVegas:Hips
{
	OFFSET 0.000000 96.479958 0.000000
	CHANNELS 6 Xposition Yposition Zposition Xrotation Yrotation Zrotation
	JOINT newVegas:Pelvis
	{
		OFFSET 0.000000 0.000000 0.000000
		CHANNELS 3 Xrotation Yrotation Zrotation
		JOINT newVegas:LeftUpLeg
		{
			OFFSET 18.735201 -5.666702 -4.541200
			CHANNELS 3 Xrotation Yrotation Zrotation
			JOINT newVegas:LeftLeg
			{
				OFFSET -0.021200 -31.938179 0.493100
				CHANNELS 3 Xrotation Yrotation Zrotation
				JOINT newVegas:LeftFoot
				{
					OFFSET 0.021200 -31.938179 -4.336299
					CHANNELS 3 Xrotation Yrotation Zrotation
					JOINT newVegas:LeftToeBase
					{
						OFFSET 0.943001 -26.722000 15.023500
						CHANNELS 3 Xrotation Yrotation Zrotation
						End Site
						{
							OFFSET 0.000000 30.670183 0.000000
						}
					}
				}
				JOINT newVegas:Left_PantLeg
				{
					OFFSET 0.663870 -9.044666 -1.108900
					CHANNELS 3 Xrotation Yrotation Zrotation
					End Site
					{
						OFFSET 1.415995 20.635357 0.000000
					}
				}
			}
		}
		JOINT newVegas:RightUpLeg
		{
			OFFSET -18.735201 -5.666702 -4.541200
			CHANNELS 3 Xrotation Yrotation Zrotation
			JOINT newVegas:RightLeg
			{
				OFFSET 0.018946 -31.938133 0.493100
				CHANNELS 3 Xrotation Yrotation Zrotation
				JOINT newVegas:RightFoot
				{
					OFFSET -0.018946 -31.938126 -4.336299
					CHANNELS 3 Xrotation Yrotation Zrotation
					JOINT newVegas:RightToeBase
					{
						OFFSET -0.943001 -26.722004 15.023500
						CHANNELS 3 Xrotation Yrotation Zrotation
						End Site
						{
							OFFSET 0.000000 30.670187 0.000000
						}
					}
				}
				JOINT newVegas:Right_PantLeg
				{
					OFFSET -0.661674 -9.044716 -1.108900
					CHANNELS 3 Xrotation Yrotation Zrotation
					End Site
					{
						OFFSET -1.415958 20.635269 0.000000
					}
				}
			}
		}
	}
	JOINT newVegas:Spine
	{
		OFFSET 0.000000 10.199997 -0.299500
		CHANNELS 3 Xrotation Yrotation Zrotation
		JOINT newVegas:Spine1
		{
			OFFSET 0.000000 11.900002 -1.516600
			CHANNELS 3 Xrotation Yrotation Zrotation
			JOINT newVegas:Spine2
			{
				OFFSET 0.000000 13.600006 -2.842500
				CHANNELS 3 Xrotation Yrotation Zrotation
				JOINT newVegas:Neck
				{
					OFFSET 0.000000 9.624100 -2.890100
					CHANNELS 3 Xrotation Yrotation Zrotation
					JOINT newVegas:Head
					{
						OFFSET 0.000000 14.068802 -1.351900
						CHANNELS 3 Xrotation Yrotation Zrotation
						JOINT newVegas:Hair_Back
						{
							OFFSET 0.000000 3.231903 -17.524799
							CHANNELS 3 Xrotation Yrotation Zrotation
							End Site
							{
								OFFSET 0.000000 19.849884 0.000000
							}
						}
						JOINT newVegas:Hair_Front
						{
							OFFSET 0.000000 31.260406 4.573800
							CHANNELS 3 Xrotation Yrotation Zrotation
							JOINT newVegas:Hair_Front1
							{
								OFFSET 0.000000 2.284103 11.993300
								CHANNELS 3 Xrotation Yrotation Zrotation
								JOINT newVegas:Hair_Front2
								{
									OFFSET 0.000000 2.284103 11.993300
									CHANNELS 3 Xrotation Yrotation Zrotation
									End Site
									{
										OFFSET 0.000000 12.208862 0.000000
									}
								}
							}
						}
						JOINT newVegas:Jowel
						{
							OFFSET 0.000000 -7.458206 6.864100
							CHANNELS 3 Xrotation Yrotation Zrotation
							End Site
							{
								OFFSET 0.000000 19.849884 0.000000
							}
						}
					}
				}
				JOINT newVegas:LeftShoulder
				{
					OFFSET 15.263000 10.923401 -0.547700
					CHANNELS 3 Xrotation Yrotation Zrotation
					JOINT newVegas:LeftArm
					{
						OFFSET 25.438599 -2.830597 -13.032500
						CHANNELS 3 Xrotation Yrotation Zrotation
						JOINT newVegas:LeftForeArm
						{
							OFFSET 29.960503 0.000000 0.000000
							CHANNELS 3 Xrotation Yrotation Zrotation
							JOINT newVegas:LeftHand
							{
								OFFSET 27.849251 0.000000 0.000000
								CHANNELS 3 Xrotation Yrotation Zrotation
								JOINT newVegas:LeftHandThumb1
								{
									OFFSET 4.487587 -3.305161 6.305391
									CHANNELS 3 Xrotation Yrotation Zrotation
									JOINT newVegas:LeftHandThumb2
									{
										OFFSET 5.480453 -3.164139 3.164143
										CHANNELS 3 Xrotation Yrotation Zrotation
										JOINT newVegas:LeftHandThumb3
										{
											OFFSET 5.159721 -2.978973 2.978967
											CHANNELS 3 Xrotation Yrotation Zrotation
											End Site
											{
												OFFSET 2.494507 5.926697 1.738678
											}
										}
									}
								}
								JOINT newVegas:LeftHandIndex1
								{
									OFFSET 18.578728 -0.527832 5.208049
									CHANNELS 3 Xrotation Yrotation Zrotation
									JOINT newVegas:LeftHandIndex2
									{
										OFFSET 3.192009 0.000000 0.000000
										CHANNELS 3 Xrotation Yrotation Zrotation
										JOINT newVegas:LeftHandIndex3
										{
											OFFSET 3.835129 0.000000 0.000000
											CHANNELS 3 Xrotation Yrotation Zrotation
											End Site
											{
												OFFSET -0.034599 3.816971 0.371180
											}
										}
									}
								}
								JOINT newVegas:LeftHandMiddle1
								{
									OFFSET 18.476105 0.000000 0.000000
									CHANNELS 3 Xrotation Yrotation Zrotation
									JOINT newVegas:LeftHandMiddle2
									{
										OFFSET 3.324875 0.000000 0.000000
										CHANNELS 3 Xrotation Yrotation Zrotation
										JOINT newVegas:LeftHandMiddle3
										{
											OFFSET 4.596550 0.000000 0.000000
											CHANNELS 3 Xrotation Yrotation Zrotation
											End Site
											{
												OFFSET 0.057701 4.578827 0.399218
											}
										}
									}
								}
								JOINT newVegas:LeftHandRing1
								{
									OFFSET 17.732719 0.121887 -4.201567
									CHANNELS 3 Xrotation Yrotation Zrotation
									JOINT newVegas:LeftHandRing2
									{
										OFFSET 2.733170 0.000000 0.000000
										CHANNELS 3 Xrotation Yrotation Zrotation
										JOINT newVegas:LeftHandRing3
										{
											OFFSET 3.178268 0.000000 0.000000
											CHANNELS 3 Xrotation Yrotation Zrotation
											End Site
											{
												OFFSET 0.119102 3.170624 0.185394
											}
										}
									}
								}
								JOINT newVegas:LeftHandPinky1
								{
									OFFSET 15.989624 -0.606689 -7.535461
									CHANNELS 3 Xrotation Yrotation Zrotation
									JOINT newVegas:LeftHandPinky2
									{
										OFFSET 2.538986 0.000000 0.000000
										CHANNELS 3 Xrotation Yrotation Zrotation
										JOINT newVegas:LeftHandPinky3
										{
											OFFSET 2.593102 0.000000 0.000000
											CHANNELS 3 Xrotation Yrotation Zrotation
											End Site
											{
												OFFSET -0.150902 2.584198 0.152708
											}
										}
									}
								}
							}
							JOINT newVegas:Left_Sleeve
							{
								OFFSET 0.267448 -0.649796 0.577675
								CHANNELS 3 Xrotation Yrotation Zrotation
								End Site
								{
									OFFSET 0.000000 15.991241 0.000000
								}
							}
							JOINT newVegas:Left_CapeC
							{
								OFFSET 15.715958 -8.608795 -6.935905
								CHANNELS 3 Xrotation Yrotation Zrotation
								JOINT newVegas:Left_CapeC1
								{
									OFFSET 0.000000 -8.688499 0.000000
									CHANNELS 3 Xrotation Yrotation Zrotation
									End Site
									{
										OFFSET 0.000000 8.688499 0.000000
									}
								}
							}
						}
						JOINT newVegas:Left_CapeB
						{
							OFFSET 26.118385 -8.608795 -7.079235
							CHANNELS 3 Xrotation Yrotation Zrotation
							JOINT newVegas:Left_CapeB1
							{
								OFFSET 0.000000 -8.688499 0.000000
								CHANNELS 3 Xrotation Yrotation Zrotation
								End Site
								{
									OFFSET 0.000000 8.688499 0.000000
								}
							}
						}
						JOINT newVegas:Left_CapeA
						{
							OFFSET 5.115639 -8.608795 -10.395809
							CHANNELS 3 Xrotation Yrotation Zrotation
							JOINT newVegas:Left_CapeA1
							{
								OFFSET 0.000000 -8.688499 0.000000
								CHANNELS 3 Xrotation Yrotation Zrotation
								End Site
								{
									OFFSET 0.000000 8.688499 0.000000
								}
							}
						}
					}
				}
				JOINT newVegas:RightShoulder
				{
					OFFSET -15.263000 10.923401 -0.547700
					CHANNELS 3 Xrotation Yrotation Zrotation
					JOINT newVegas:RightArm
					{
						OFFSET -25.438599 -2.830597 -13.032500
						CHANNELS 3 Xrotation Yrotation Zrotation
						JOINT newVegas:RightForeArm
						{
							OFFSET -29.960503 0.000000 0.000000
							CHANNELS 3 Xrotation Yrotation Zrotation
							JOINT newVegas:RightHand
							{
								OFFSET -27.849251 0.000000 0.000000
								CHANNELS 3 Xrotation Yrotation Zrotation
								JOINT newVegas:RightHandThumb1
								{
									OFFSET -4.487587 -3.305161 6.305391
									CHANNELS 3 Xrotation Yrotation Zrotation
									JOINT newVegas:RightHandThumb2
									{
										OFFSET -5.480453 -3.164139 3.164143
										CHANNELS 3 Xrotation Yrotation Zrotation
										JOINT newVegas:RightHandThumb3
										{
											OFFSET -5.159721 -2.978973 2.978967
											CHANNELS 3 Xrotation Yrotation Zrotation
											End Site
											{
												OFFSET -2.494507 5.926697 1.738678
											}
										}
									}
								}
								JOINT newVegas:RightHandIndex1
								{
									OFFSET -18.578728 -0.527832 5.208049
									CHANNELS 3 Xrotation Yrotation Zrotation
									JOINT newVegas:RightHandIndex2
									{
										OFFSET -3.192009 0.000000 0.000000
										CHANNELS 3 Xrotation Yrotation Zrotation
										JOINT newVegas:RightHandIndex3
										{
											OFFSET -3.835129 0.000000 0.000000
											CHANNELS 3 Xrotation Yrotation Zrotation
											End Site
											{
												OFFSET 0.034599 3.816971 0.371180
											}
										}
									}
								}
								JOINT newVegas:RightHandMiddle1
								{
									OFFSET -18.476105 0.000000 0.000000
									CHANNELS 3 Xrotation Yrotation Zrotation
									JOINT newVegas:RightHandMiddle2
									{
										OFFSET -3.324875 0.000000 0.000000
										CHANNELS 3 Xrotation Yrotation Zrotation
										JOINT newVegas:RightHandMiddle3
										{
											OFFSET -4.596550 0.000000 0.000000
											CHANNELS 3 Xrotation Yrotation Zrotation
											End Site
											{
												OFFSET -0.057701 4.578827 0.399218
											}
										}
									}
								}
								JOINT newVegas:RightHandRing1
								{
									OFFSET -17.732719 0.121887 -4.201567
									CHANNELS 3 Xrotation Yrotation Zrotation
									JOINT newVegas:RightHandRing2
									{
										OFFSET -2.733170 0.000000 0.000000
										CHANNELS 3 Xrotation Yrotation Zrotation
										JOINT newVegas:RightHandRing3
										{
											OFFSET -3.178268 0.000000 0.000000
											CHANNELS 3 Xrotation Yrotation Zrotation
											End Site
											{
												OFFSET -0.119102 3.170624 0.185394
											}
										}
									}
								}
								JOINT newVegas:RightHandPinky1
								{
									OFFSET -15.989624 -0.606689 -7.535461
									CHANNELS 3 Xrotation Yrotation Zrotation
									JOINT newVegas:RightHandPinky2
									{
										OFFSET -2.538986 0.000000 0.000000
										CHANNELS 3 Xrotation Yrotation Zrotation
										JOINT newVegas:RightHandPinky3
										{
											OFFSET -2.593102 0.000000 0.000000
											CHANNELS 3 Xrotation Yrotation Zrotation
											End Site
											{
												OFFSET 0.150902 2.584198 0.152708
											}
										}
									}
								}
							}
							JOINT newVegas:Right_CapeC
							{
								OFFSET -15.715958 -8.608795 -6.935905
								CHANNELS 3 Xrotation Yrotation Zrotation
								JOINT newVegas:Right_CapeC1
								{
									OFFSET 0.000000 -8.688499 0.000000
									CHANNELS 3 Xrotation Yrotation Zrotation
									End Site
									{
										OFFSET 0.000000 8.688499 0.000000
									}
								}
							}
							JOINT newVegas:Right_Sleeve
							{
								OFFSET -0.267448 -0.649994 0.577675
								CHANNELS 3 Xrotation Yrotation Zrotation
								End Site
								{
									OFFSET 0.000000 15.991302 0.000000
								}
							}
						}
						JOINT newVegas:Right_CapeA
						{
							OFFSET -5.115540 -8.608795 -10.395824
							CHANNELS 3 Xrotation Yrotation Zrotation
							JOINT newVegas:Right_CapeA1
							{
								OFFSET 0.000000 -8.688499 0.000000
								CHANNELS 3 Xrotation Yrotation Zrotation
								End Site
								{
									OFFSET 0.000000 8.688499 0.000000
								}
							}
						}
						JOINT newVegas:Right_CapeB
						{
							OFFSET -26.118187 -8.608795 -7.079266
							CHANNELS 3 Xrotation Yrotation Zrotation
							JOINT newVegas:Right_CapeB1
							{
								OFFSET 0.000000 -8.688499 0.000000
								CHANNELS 3 Xrotation Yrotation Zrotation
								End Site
								{
									OFFSET 0.000000 8.688499 0.000000
								}
							}
						}
					}
				}
				JOINT newVegas:Left_Collar
				{
					OFFSET 18.625099 8.655502 8.828100
					CHANNELS 3 Xrotation Yrotation Zrotation
					JOINT newVegas:Left_Collar1
					{
						OFFSET 14.783401 10.540405 -1.259500
						CHANNELS 3 Xrotation Yrotation Zrotation
						End Site
						{
							OFFSET 0.000000 18.199875 0.000000
						}
					}
				}
				JOINT newVegas:Collar_Back
				{
					OFFSET 0.000000 15.630707 -20.132601
					CHANNELS 3 Xrotation Yrotation Zrotation
					End Site
					{
						OFFSET 0.000000 22.523010 0.000000
					}
				}
				JOINT newVegas:Left_Peck
				{
					OFFSET 17.239599 -5.132599 25.482599
					CHANNELS 3 Xrotation Yrotation Zrotation
					End Site
					{
						OFFSET 0.000000 22.523010 0.000000
					}
				}
				JOINT newVegas:Right_Peck
				{
					OFFSET -17.239599 -5.132202 25.482599
					CHANNELS 3 Xrotation Yrotation Zrotation
					End Site
					{
						OFFSET 0.000000 22.523010 0.000000
					}
				}
				JOINT newVegas:Right_Collar
				{
					OFFSET -18.625099 8.655792 8.828100
					CHANNELS 3 Xrotation Yrotation Zrotation
					JOINT newVegas:Right_Collar1
					{
						OFFSET -14.783401 10.539993 -1.259500
						CHANNELS 3 Xrotation Yrotation Zrotation
						End Site
						{
							OFFSET 0.000000 18.199631 0.000000
						}
					}
				}
			}
		}
		JOINT newVegas:Belly
		{
			OFFSET 0.000000 -6.540398 9.014299
			CHANNELS 3 Xrotation Yrotation Zrotation
			End Site
			{
				OFFSET 0.000000 11.566666 0.000000
			}
		}
	}
	JOINT newVegas:ElvisFacialAnim_Joint
	{
		OFFSET 1.000000 -95.330101 -8.825800
		CHANNELS 3 Xrotation Yrotation Zrotation
		End Site
		{
			OFFSET 0.000000 35.315800 0.000000
		}
	}
}
MOTION
Frames: 4
Frame Time: 0.033333
-8.653973 78.862381 21.246159 29.804019 60.436895 -25.062602 0.000001 0.000002 -0.000000 -68.316139 8.551891 19.012387 70.307549 8.558152 -3.770700 -15.754689 4.288132 -4.347135 0.000000 -0.000001 -0.000000 0.000000 0.000001 -0.000000 -62.034503 7.971065 -9.505753 76.928612 -2.773015 -4.392904 -22.806731 -0.239884 12.332814 0.000000 -0.000000 0.000000 -0.000001 0.000003 -0.000001 24.361132 -5.659898 -8.047988 4.945185 -0.894378 -2.564558 4.965809 -0.809502 -2.550823 0.912856 1.473810 -0.465633 0.912838 1.473812 -0.465628 -0.000001 -0.000002 -0.000000 0.912938 1.473843 -0.465661 0.912827 1.473735 -0.465620 0.000002 -0.000002 0.000002 -0.000001 -0.000002 -0.000000 3.750417 -16.959150 -7.517966 -30.880153 30.500042 -49.833730 -0.000900 -96.075107 -0.000895 -131.957288 5.924540 6.994419 29.903067 -20.106637 24.146088 -27.513248 19.080504 -8.263459 0.000001 -0.000002 0.000002 -2.670675 2.504965 -48.109715 3.332149 5.282804 -64.461618 0.000002 -0.000001 -0.000001 1.511817 6.506772 -58.014124 3.163416 5.199149 -62.614639 -0.000001 -0.000001 -0.000000 5.613638 8.482447 -69.368289 3.829454 5.491850 -69.754564 -0.000001 0.000001 0.000003 8.683785 8.999027 -76.868247 2.845251 5.022248 -59.043980 -0.000001 -0.000003 -0.000000 0.000002 0.000000 -0.000001 0.000002 0.000000 -0.000001 0.000001 0.000001 -0.000001 0.000001 -0.000001 -0.000002 0.000001 -0.000002 -0.000003 0.000001 -0.000001 -0.000002 0.000000 -0.000002 -0.000001 -0.054554 27.550094 11.194530 -1.404443 35.248721 21.776158 -0.000091 108.668829 0.000093 -24.240087 -18.953170 8.087571 61.632178 28.897776 -13.280785 0.330271 -35.814821 7.397266 0.000001 -0.000002 0.000003 -0.575498 -0.947576 17.139374 0.321397 -1.701652 21.388401 0.000001 -0.000001 -0.000001 0.670079 -5.101760 53.857753 5.248120 -4.619585 97.298060 0.000000 -0.000000 0.000002 7.412614 -8.470611 67.075463 3.825503 -4.582452 79.701846 0.000001 0.000004 0.000003 7.484586 -8.453052 67.591784 1.968020 -3.803713 54.700950 0.000000 0.000001 0.000002 -0.000001 0.000000 -0.000002 -0.000001 -0.000002 0.000001 -0.000001 0.000000 -0.000001 0.000001 0.000000 -0.000001 0.000001 0.000001 -0.000001 0.000001 0.000000 -0.000001 0.000001 0.000001 -0.000001 0.000000 0.000000 0.000001 0.000000 0.000000 0.000001 0.000000 0.000000 0.000001 0.000000 0.000000 0.000001 0.000000 0.000000 0.000001 0.000000 0.000000 0.000001 0.000000 0.000000 0.000001 0.000003 0.000003 -0.000000 0.000001 0.000002 -0.000000 
-8.913273 78.218018 22.581253 30.627316 61.844993 -25.983742 0.000001 -0.000001 -0.000000 -68.841477 6.492979 18.997095 71.310986 8.395519 -3.628628 -15.105682 4.249047 -5.839213 0.000000 0.000001 -0.000000 -0.000001 0.000000 0.000000 -61.646829 9.255963 -9.315969 78.158285 -1.204550 -4.442021 -24.215618 -0.068075 14.569751 0.000000 0.000000 -0.000000 0.000001 0.000000 -0.000000 24.264568 -5.556973 -8.568846 4.928930 -0.828068 -2.711520 4.946972 -0.741700 -2.702498 0.908111 1.350552 -0.234633 0.908091 1.350537 -0.234606 -0.000000 0.000002 -0.000002 0.908105 1.350555 -0.234619 0.908105 1.350548 -0.234634 0.000002 0.000002 -0.000000 -0.000000 0.000002 -0.000000 3.771085 -16.819443 -7.187400 -30.657670 29.472891 -50.336363 -0.000604 -94.394553 -0.000579 -132.231615 6.424209 6.261321 29.935930 -20.077206 24.230103 -27.513245 19.080502 -8.263456 0.000002 -0.000001 -0.000001 -2.670865 2.492425 -48.026584 3.331482 5.282486 -64.454310 0.000000 0.000002 -0.000000 1.505714 6.500308 -57.929785 3.163415 5.199148 -62.614639 -0.000000 0.000003 0.000000 5.605820 8.482466 -69.283219 3.829449 5.491851 -69.754530 -0.000001 0.000001 -0.000000 8.673888 9.003093 -76.782917 2.845249 5.022258 -59.043980 -0.000001 0.000002 0.000001 0.000001 0.000002 -0.000000 0.000001 0.000002 -0.000000 0.000000 0.000002 0.000000 0.000001 -0.000001 0.000001 0.000001 -0.000002 -0.000002 0.000001 -0.000001 0.000001 0.000001 -0.000000 0.000001 -0.080085 27.502238 11.391711 -1.486630 35.122424 22.228374 -0.000183 108.394549 0.000194 -23.734303 -19.579733 8.221085 61.632178 28.897772 -13.280782 0.330272 -35.814821 7.397267 0.000003 -0.000005 0.000000 -0.575500 -0.947584 17.139374 0.321395 -1.701652 21.388401 0.000000 0.000003 -0.000000 0.670075 -5.101763 53.857753 5.248122 -4.619583 97.298060 0.000001 0.000000 0.000000 7.412611 -8.470616 67.075470 3.825504 -4.582451 79.701846 -0.000001 0.000001 -0.000000 7.484582 -8.453058 67.591791 1.968017 -3.803719 54.700946 0.000001 0.000002 -0.000000 0.000001 0.000001 0.000003 0.000000 0.000000 0.000001 0.000002 0.000001 0.000004 -0.000002 0.000000 0.000002 -0.000002 0.000001 -0.000001 -0.000002 0.000000 0.000002 -0.000002 0.000001 0.000000 0.000001 0.000000 -0.000000 0.000001 0.000000 -0.000000 0.000001 0.000000 -0.000000 0.000001 0.000000 -0.000000 0.000001 0.000000 -0.000000 0.000001 0.000000 -0.000000 0.000001 0.000000 -0.000000 -0.000003 -0.000001 0.000002 0.000001 -0.000001 -0.000000 
-9.231276 77.596657 23.833138 31.712937 63.400405 -27.105027 0.000001 -0.000001 0.000000 -69.419297 4.642149 18.807421 71.979443 8.309615 -3.458112 -14.204837 3.964616 -7.149063 0.000000 0.000001 -0.000000 -0.000001 -0.000000 -0.000000 -60.818142 9.479818 -8.896838 79.880360 0.187483 -4.282523 -27.044709 -1.535543 14.590790 0.000000 -0.000000 0.000000 0.000003 0.000003 -0.000002 24.229440 -5.509941 -8.968595 4.930010 -0.796192 -2.780930 4.946786 -0.711938 -2.773490 0.899658 1.237243 -0.026516 0.899664 1.237236 -0.026513 -0.000004 0.000000 -0.000000 0.899672 1.237245 -0.026534 0.899682 1.237243 -0.026535 0.000000 0.000001 -0.000000 -0.000004 0.000000 -0.000000 3.757875 -16.833869 -7.645863 -31.093883 28.062196 -49.954013 0.000942 -92.615541 0.001010 -132.588903 6.939816 5.595542 29.932116 -20.040323 24.208062 -27.513243 19.080502 -8.263451 0.000002 -0.000000 -0.000003 -2.670857 2.493109 -48.031092 3.331457 5.282473 -64.454036 -0.000000 0.000001 -0.000000 1.505996 6.500607 -57.933644 3.163412 5.199148 -62.614639 0.000001 -0.000002 -0.000000 5.608478 8.483314 -69.287748 3.829451 5.491864 -69.754543 -0.000001 0.000001 0.000001 8.674440 9.002855 -76.787719 2.845251 5.022254 -59.043973 -0.000002 0.000000 0.000000 -0.000001 -0.000000 0.000001 -0.000001 -0.000000 0.000001 -0.000002 -0.000000 0.000001 -0.000000 -0.000003 -0.000002 -0.000000 -0.000003 -0.000003 -0.000000 -0.000003 -0.000002 -0.000000 -0.000002 -0.000001 0.004116 27.270015 11.107559 -1.672919 35.222162 22.940988 -0.000506 107.957048 0.000489 -23.145950 -19.995713 8.223420 61.632178 28.897772 -13.280782 0.330264 -35.814817 7.397269 0.000003 0.000001 -0.000000 -0.575499 -0.947579 17.139371 0.321394 -1.701649 21.388399 -0.000001 -0.000000 0.000000 0.670078 -5.101765 53.857749 5.248121 -4.619583 97.298060 0.000002 0.000000 -0.000000 7.412612 -8.470617 67.075463 3.825506 -4.582452 79.701846 -0.000000 0.000001 -0.000003 7.484587 -8.453053 67.591784 1.968018 -3.803718 54.700950 -0.000001 -0.000004 -0.000001 0.000000 -0.000000 0.000003 0.000002 -0.000001 0.000001 0.000001 -0.000001 0.000003 -0.000001 0.000000 -0.000001 -0.000001 0.000001 -0.000001 -0.000001 0.000000 -0.000001 -0.000001 0.000001 -0.000001 -0.000000 0.000001 -0.000000 -0.000000 0.000001 -0.000000 -0.000000 0.000001 -0.000000 -0.000000 0.000001 -0.000000 -0.000000 0.000001 -0.000000 -0.000000 0.000001 -0.000000 -0.000000 0.000001 -0.000000 -0.000001 0.000000 -0.000001 0.000001 -0.000001 0.000000 
-9.572327 77.037125 24.961012 33.462838 65.028203 -28.867108 -0.000000 -0.000002 0.000000 -70.182912 3.001911 18.390827 72.210078 7.700802 -3.273710 -13.068144 4.058473 -8.053246 0.000000 -0.000000 0.000000 0.000001 0.000000 -0.000001 -59.698258 9.046343 -8.327905 81.539352 1.219056 -4.033374 -30.758985 -3.506037 13.153351 -0.000000 0.000000 -0.000000 0.000000 0.000002 0.000000 24.145793 -5.692832 -9.036438 4.951581 -0.853648 -2.811133 4.969542 -0.770004 -2.801250 0.886580 1.137598 0.148490 0.886586 1.137592 0.148494 -0.000001 -0.000002 0.000001 0.886578 1.137581 0.148487 0.886602 1.137612 0.148493 0.000006 0.000000 -0.000000 -0.000001 -0.000002 0.000000 3.726382 -17.079795 -7.993752 -31.778350 27.507089 -50.122298 -0.002581 -90.671704 -0.002549 -132.460454 7.973090 5.114224 30.005134 -20.093430 24.429976 -27.513245 19.080504 -8.263449 0.000003 -0.000003 0.000001 -2.671159 2.467602 -47.862144 3.332787 5.283111 -64.468462 0.000000 -0.000001 -0.000002 1.493779 6.487622 -57.764549 3.163411 5.199148 -62.614639 0.000001 0.000002 0.000000 5.593318 8.483571 -69.115893 3.829443 5.491849 -69.754543 -0.000001 0.000001 0.000004 8.654355 9.011062 -76.614519 2.845253 5.022253 -59.043973 -0.000001 0.000002 0.000002 0.000000 -0.000004 0.000002 0.000000 -0.000004 0.000002 -0.000000 -0.000004 0.000002 0.000000 0.000001 0.000000 0.000000 0.000000 -0.000000 0.000000 0.000001 0.000000 0.000001 0.000002 0.000001 0.077786 27.206747 10.720809 -1.759668 35.280178 23.531947 0.000151 107.345480 -0.000132 -22.652995 -20.331147 8.274879 61.632185 28.897776 -13.280782 0.330270 -35.814828 7.397262 0.000001 -0.000002 -0.000001 -0.575497 -0.947580 17.139380 0.321396 -1.701652 21.388399 0.000000 -0.000002 0.000001 0.670079 -5.101764 53.857756 5.248124 -4.619584 97.298060 0.000002 0.000000 0.000000 7.412616 -8.470615 67.075470 3.825503 -4.582456 79.701846 0.000001 0.000001 0.000001 7.484585 -8.453056 67.591784 1.968020 -3.803720 54.700950 0.000004 0.000001 0.000002 -0.000002 0.000002 0.000003 -0.000000 0.000000 0.000000 -0.000002 0.000001 0.000002 0.000001 -0.000002 -0.000001 0.000001 -0.000001 -0.000001 0.000001 -0.000002 -0.000001 0.000001 -0.000001 -0.000001 -0.000002 0.000000 0.000001 -0.000002 0.000000 0.000001 -0.000002 0.000000 0.000001 -0.000002 0.000000 0.000001 -0.000002 0.000000 0.000001 -0.000002 0.000000 0.000001 -0.000002 0.000000 0.000001 0.000004 0.000001 -0.000002 -0.000000 -0.000002 0.000000 
